<?xml version="1.0" encoding="utf-8"?>
<!-- Generator: Adobe Illustrator 21.0.1, SVG Export Plug-In . SVG Version: 6.00 Build 0)  -->
<svg version="1.1" id="Layer_1" xmlns="http://www.w3.org/2000/svg" xmlns:xlink="http://www.w3.org/1999/xlink" x="0px" y="0px"
	 viewBox="0 0 60 60" style="enable-background:new 0 0 60 60;" xml:space="preserve">
<style type="text/css">
	.st0{fill:#4D9DDD;}
	.st1{fill:#FFFFFF;}
</style>
<circle class="st0" cx="30" cy="30" r="30"/>
<g>
	<g>
		<path class="st1" d="M24,20.4v3c0,0.4-0.1,0.8-0.4,1.1c-0.3,0.3-0.6,0.4-1.1,0.4h-5c-0.4,0-0.8-0.1-1.1-0.4
			c-0.3-0.3-0.4-0.6-0.4-1.1v-3c0-0.4,0.1-0.8,0.4-1.1c0.3-0.3,0.6-0.4,1.1-0.4h5c0.4,0,0.8,0.1,1.1,0.4C23.8,19.7,24,20,24,20.4z
			 M24,28.4v3c0,0.4-0.1,0.8-0.4,1.1c-0.3,0.3-0.6,0.4-1.1,0.4h-5c-0.4,0-0.8-0.1-1.1-0.4c-0.3-0.3-0.4-0.6-0.4-1.1v-3
			c0-0.4,0.1-0.8,0.4-1.1c0.3-0.3,0.6-0.4,1.1-0.4h5c0.4,0,0.8,0.1,1.1,0.4C23.8,27.7,24,28,24,28.4z M24,36.4v3
			c0,0.4-0.1,0.8-0.4,1.1c-0.3,0.3-0.6,0.4-1.1,0.4h-5c-0.4,0-0.8-0.1-1.1-0.4c-0.3-0.3-0.4-0.6-0.4-1.1v-3c0-0.4,0.1-0.8,0.4-1.1
			c0.3-0.3,0.6-0.4,1.1-0.4h5c0.4,0,0.8,0.1,1.1,0.4C23.8,35.7,24,36,24,36.4z M34,20.4v3c0,0.4-0.1,0.8-0.4,1.1
			c-0.3,0.3-0.6,0.4-1.1,0.4h-5c-0.4,0-0.8-0.1-1.1-0.4c-0.3-0.3-0.4-0.6-0.4-1.1v-3c0-0.4,0.1-0.8,0.4-1.1c0.3-0.3,0.6-0.4,1.1-0.4
			h5c0.4,0,0.8,0.1,1.1,0.4C33.8,19.7,34,20,34,20.4z M34,28.4v3c0,0.4-0.1,0.8-0.4,1.1c-0.3,0.3-0.6,0.4-1.1,0.4h-5
			c-0.4,0-0.8-0.1-1.1-0.4c-0.3-0.3-0.4-0.6-0.4-1.1v-3c0-0.4,0.1-0.8,0.4-1.1c0.3-0.3,0.6-0.4,1.1-0.4h5c0.4,0,0.8,0.1,1.1,0.4
			C33.8,27.7,34,28,34,28.4z M34,36.4v3c0,0.4-0.1,0.8-0.4,1.1c-0.3,0.3-0.6,0.4-1.1,0.4h-5c-0.4,0-0.8-0.1-1.1-0.4
			c-0.3-0.3-0.4-0.6-0.4-1.1v-3c0-0.4,0.1-0.8,0.4-1.1c0.3-0.3,0.6-0.4,1.1-0.4h5c0.4,0,0.8,0.1,1.1,0.4C33.8,35.7,34,36,34,36.4z
			 M44,20.4v3c0,0.4-0.1,0.8-0.4,1.1c-0.3,0.3-0.6,0.4-1.1,0.4h-5c-0.4,0-0.8-0.1-1.1-0.4c-0.3-0.3-0.4-0.6-0.4-1.1v-3
			c0-0.4,0.1-0.8,0.4-1.1c0.3-0.3,0.6-0.4,1.1-0.4h5c0.4,0,0.8,0.1,1.1,0.4C43.8,19.7,44,20,44,20.4z M44,28.4v3
			c0,0.4-0.1,0.8-0.4,1.1c-0.3,0.3-0.6,0.4-1.1,0.4h-5c-0.4,0-0.8-0.1-1.1-0.4c-0.3-0.3-0.4-0.6-0.4-1.1v-3c0-0.4,0.1-0.8,0.4-1.1
			c0.3-0.3,0.6-0.4,1.1-0.4h5c0.4,0,0.8,0.1,1.1,0.4C43.8,27.7,44,28,44,28.4z M44,36.4v3c0,0.4-0.1,0.8-0.4,1.1
			c-0.3,0.3-0.6,0.4-1.1,0.4h-5c-0.4,0-0.8-0.1-1.1-0.4c-0.3-0.3-0.4-0.6-0.4-1.1v-3c0-0.4,0.1-0.8,0.4-1.1c0.3-0.3,0.6-0.4,1.1-0.4
			h5c0.4,0,0.8,0.1,1.1,0.4C43.8,35.7,44,36,44,36.4z"/>
	</g>
</g>
</svg>
